<svg xmlns="http://www.w3.org/2000/svg" xmlns:xlink="http://www.w3.org/1999/xlink" width="500" zoomAndPan="magnify" viewBox="0 0 375 149.999998" height="200" preserveAspectRatio="xMidYMid meet" version="1.0"><defs><g/><clipPath id="c4534e37a1"><rect x="0" width="295" y="0" height="100"/></clipPath><clipPath id="cdb14b44b6"><path d="M 5 0.359375 L 17 0.359375 L 17 103 L 5 103 Z M 5 0.359375 " clip-rule="nonzero"/></clipPath><clipPath id="1b437158da"><rect x="0" width="106" y="0" height="104"/></clipPath><clipPath id="e5fe2e691a"><path d="M 89 1 L 101 1 L 101 103.640625 L 89 103.640625 Z M 89 1 " clip-rule="nonzero"/></clipPath><clipPath id="f9af56c6fe"><rect x="0" width="106" y="0" height="104"/></clipPath></defs><g transform="matrix(1, 0, 0, 1, 47, 25)"><g clip-path="url(#c4534e37a1)"><g fill="currentColor" fill-opacity="1"><g transform="translate(0.74262, 71.413117)"><g><path d="M 46.46875 -35.53125 C 50.257812 -31.394531 52.15625 -26.320312 52.15625 -20.3125 C 52.15625 -14.300781 50.257812 -9.210938 46.46875 -5.046875 C 42.675781 -0.890625 37.851562 1.1875 32 1.1875 C 26.632812 1.1875 22.210938 -0.5 18.734375 -3.875 L 18.734375 20.546875 L 4.734375 20.546875 L 4.734375 -40.546875 L 18.578125 -40.546875 L 18.578125 -35.953125 L 18.734375 -35.953125 C 22.210938 -39.804688 26.632812 -41.734375 32 -41.734375 C 37.851562 -41.734375 42.675781 -39.664062 46.46875 -35.53125 Z M 34.5625 -13.4375 C 36.382812 -15.226562 37.296875 -17.519531 37.296875 -20.3125 C 37.296875 -23.101562 36.425781 -25.378906 34.6875 -27.140625 C 32.957031 -28.910156 30.664062 -29.796875 27.8125 -29.796875 C 25.070312 -29.796875 22.820312 -28.898438 21.0625 -27.109375 C 19.300781 -25.316406 18.421875 -23.050781 18.421875 -20.3125 C 18.421875 -17.519531 19.328125 -15.226562 21.140625 -13.4375 C 22.960938 -11.644531 25.1875 -10.75 27.8125 -10.75 C 30.5 -10.75 32.75 -11.644531 34.5625 -13.4375 Z M 34.5625 -13.4375 "/></g></g></g><g fill="currentColor" fill-opacity="1"><g transform="translate(47.991752, 71.413117)"><g><path d="M 4.734375 0 L 4.734375 -67.96875 L 18.734375 -67.96875 L 18.734375 -36.28125 L 18.890625 -36.28125 C 22.523438 -39.914062 26.394531 -41.734375 30.5 -41.734375 C 32.507812 -41.734375 34.5 -41.46875 36.46875 -40.9375 C 38.445312 -40.40625 40.34375 -39.585938 42.15625 -38.484375 C 43.976562 -37.378906 45.453125 -35.8125 46.578125 -33.78125 C 47.710938 -31.757812 48.28125 -29.40625 48.28125 -26.71875 L 48.28125 0 L 34.296875 0 L 34.296875 -22.921875 C 34.296875 -25.023438 33.625 -26.867188 32.28125 -28.453125 C 30.9375 -30.035156 29.1875 -30.828125 27.03125 -30.828125 C 24.925781 -30.828125 23.015625 -30.007812 21.296875 -28.375 C 19.585938 -26.738281 18.734375 -24.921875 18.734375 -22.921875 L 18.734375 0 Z M 4.734375 0 "/></g></g></g><g fill="currentColor" fill-opacity="1"><g transform="translate(93.502548, 71.413117)"><g><path d="M 6.078125 -63.140625 C 7.710938 -64.773438 9.660156 -65.59375 11.921875 -65.59375 C 14.191406 -65.59375 16.144531 -64.773438 17.78125 -63.140625 C 19.414062 -61.515625 20.234375 -59.566406 20.234375 -57.296875 C 20.234375 -55.035156 19.414062 -53.085938 17.78125 -51.453125 C 16.144531 -49.816406 14.191406 -49 11.921875 -49 C 9.660156 -49 7.710938 -49.816406 6.078125 -51.453125 C 4.453125 -53.085938 3.640625 -55.035156 3.640625 -57.296875 C 3.640625 -59.566406 4.453125 -61.515625 6.078125 -63.140625 Z M 4.734375 -40.546875 L 4.734375 0 L 18.734375 0 L 18.734375 -40.546875 Z M 4.734375 -40.546875 "/></g></g></g><g fill="currentColor" fill-opacity="1"><g transform="translate(110.646895, 71.413117)"><g><path d="M 4.734375 0 L 4.734375 -67.96875 L 18.734375 -67.96875 L 18.734375 0 Z M 4.734375 0 "/></g></g></g><g fill="currentColor" fill-opacity="1"><g transform="translate(127.396154, 71.413117)"><g><path d="M 7.109375 -40.546875 L 7.109375 -55.640625 L 21.09375 -55.640625 L 21.09375 -40.546875 L 29.640625 -40.546875 L 29.640625 -29.875 L 21.09375 -29.875 L 21.09375 -16.984375 C 21.09375 -13.242188 22.148438 -11.375 24.265625 -11.375 C 24.785156 -11.375 25.335938 -11.476562 25.921875 -11.6875 C 26.503906 -11.90625 26.953125 -12.117188 27.265625 -12.328125 L 27.734375 -12.640625 L 31.21875 -1.34375 C 28.21875 0.34375 24.789062 1.1875 20.9375 1.1875 C 18.300781 1.1875 16.035156 0.726562 14.140625 -0.1875 C 12.242188 -1.113281 10.804688 -2.351562 9.828125 -3.90625 C 8.859375 -5.46875 8.160156 -7.101562 7.734375 -8.8125 C 7.316406 -10.519531 7.109375 -12.347656 7.109375 -14.296875 L 7.109375 -29.875 L 1.265625 -29.875 L 1.265625 -40.546875 Z M 7.109375 -40.546875 "/></g></g></g><g fill="currentColor" fill-opacity="1"><g transform="translate(151.888899, 71.413117)"><g><path d="M 45.765625 -18.328125 L 16.359375 -18.328125 C 16.359375 -15.484375 17.28125 -13.375 19.125 -12 C 20.96875 -10.632812 22.96875 -9.953125 25.125 -9.953125 C 27.394531 -9.953125 29.1875 -10.253906 30.5 -10.859375 C 31.820312 -11.472656 33.328125 -12.675781 35.015625 -14.46875 L 45.125 -9.40625 C 40.90625 -2.34375 33.898438 1.1875 24.109375 1.1875 C 17.992188 1.1875 12.75 -0.90625 8.375 -5.09375 C 4 -9.28125 1.8125 -14.320312 1.8125 -20.21875 C 1.8125 -26.125 4 -31.1875 8.375 -35.40625 C 12.75 -39.625 17.992188 -41.734375 24.109375 -41.734375 C 30.535156 -41.734375 35.765625 -39.875 39.796875 -36.15625 C 43.828125 -32.4375 45.84375 -27.128906 45.84375 -20.234375 C 45.84375 -19.285156 45.816406 -18.648438 45.765625 -18.328125 Z M 16.75 -26.078125 L 32.171875 -26.078125 C 31.847656 -28.179688 31.015625 -29.800781 29.671875 -30.9375 C 28.328125 -32.070312 26.601562 -32.640625 24.5 -32.640625 C 22.175781 -32.640625 20.328125 -32.03125 18.953125 -30.8125 C 17.585938 -29.601562 16.851562 -28.023438 16.75 -26.078125 Z M 16.75 -26.078125 "/></g></g></g><g fill="currentColor" fill-opacity="1"><g transform="translate(192.81681, 71.413117)"><g><path d="M 26.3125 -30.265625 C 23.675781 -30.265625 21.410156 -29.289062 19.515625 -27.34375 C 17.617188 -25.394531 16.671875 -23.050781 16.671875 -20.3125 C 16.671875 -17.519531 17.617188 -15.148438 19.515625 -13.203125 C 21.410156 -11.253906 23.675781 -10.28125 26.3125 -10.28125 C 27.582031 -10.28125 28.78125 -10.4375 29.90625 -10.75 C 31.039062 -11.0625 31.875 -11.378906 32.40625 -11.703125 L 33.109375 -12.171875 L 37.859375 -2.453125 C 37.484375 -2.191406 36.96875 -1.863281 36.3125 -1.46875 C 35.65625 -1.070312 34.15625 -0.53125 31.8125 0.15625 C 29.46875 0.84375 26.953125 1.1875 24.265625 1.1875 C 18.304688 1.1875 13.070312 -0.90625 8.5625 -5.09375 C 4.0625 -9.28125 1.8125 -14.300781 1.8125 -20.15625 C 1.8125 -26.050781 4.0625 -31.117188 8.5625 -35.359375 C 13.070312 -39.609375 18.304688 -41.734375 24.265625 -41.734375 C 26.953125 -41.734375 29.425781 -41.414062 31.6875 -40.78125 C 33.957031 -40.144531 35.566406 -39.515625 36.515625 -38.890625 L 37.859375 -37.9375 L 33.109375 -28.375 C 31.367188 -29.632812 29.101562 -30.265625 26.3125 -30.265625 Z M 26.3125 -30.265625 "/></g></g></g><g fill="currentColor" fill-opacity="1"><g transform="translate(224.895022, 71.413117)"><g><path d="M 4.734375 0 L 4.734375 -67.96875 L 18.734375 -67.96875 L 18.734375 -36.28125 L 18.890625 -36.28125 C 22.523438 -39.914062 26.394531 -41.734375 30.5 -41.734375 C 32.507812 -41.734375 34.5 -41.46875 36.46875 -40.9375 C 38.445312 -40.40625 40.34375 -39.585938 42.15625 -38.484375 C 43.976562 -37.378906 45.453125 -35.8125 46.578125 -33.78125 C 47.710938 -31.757812 48.28125 -29.40625 48.28125 -26.71875 L 48.28125 0 L 34.296875 0 L 34.296875 -22.921875 C 34.296875 -25.023438 33.625 -26.867188 32.28125 -28.453125 C 30.9375 -30.035156 29.1875 -30.828125 27.03125 -30.828125 C 24.925781 -30.828125 23.015625 -30.007812 21.296875 -28.375 C 19.585938 -26.738281 18.734375 -24.921875 18.734375 -22.921875 L 18.734375 0 Z M 4.734375 0 "/></g></g></g><g fill="currentColor" fill-opacity="1"><g transform="translate(270.405818, 71.413117)"><g><path d="M 13.75 -16.90625 C 16.28125 -16.90625 18.425781 -16.023438 20.1875 -14.265625 C 21.957031 -12.503906 22.84375 -10.359375 22.84375 -7.828125 C 22.84375 -5.347656 21.957031 -3.222656 20.1875 -1.453125 C 18.425781 0.304688 16.28125 1.1875 13.75 1.1875 C 11.269531 1.1875 9.144531 0.304688 7.375 -1.453125 C 5.613281 -3.222656 4.734375 -5.347656 4.734375 -7.828125 C 4.734375 -10.359375 5.613281 -12.503906 7.375 -14.265625 C 9.144531 -16.023438 11.269531 -16.90625 13.75 -16.90625 Z M 13.75 -16.90625 "/></g></g></g></g></g><g transform="matrix(1, 0, 0, 1, 0, 45)"><g clip-path="url(#1b437158da)"><path stroke-linecap="butt" transform="matrix(1.10658, 0, 0, 1.10658, 5.580776, 89.571616)" fill="none" stroke-linejoin="miter" d="M 0.00113471 5.00086 L 84.432139 5.00086 " stroke="currentColor" stroke-width="10" stroke-opacity="1" stroke-miterlimit="4"/><g clip-path="url(#cdb14b44b6)"><path stroke-linecap="butt" transform="matrix(0, 1.10658, -1.10658, 0, 16.640905, 6.070989)" fill="none" stroke-linejoin="miter" d="M -0.000611434 4.998761 L 82.464172 4.998761 " stroke="currentColor" stroke-width="10" stroke-opacity="1" stroke-miterlimit="4"/></g></g></g><g transform="matrix(1, 0, 0, 1, 269, 1)"><g clip-path="url(#f9af56c6fe)"><path stroke-linecap="butt" transform="matrix(-1.10658, 0, 0, -1.10658, 100.40173, 14.426608)" fill="none" stroke-linejoin="miter" d="M -0.000555019 4.999254 L 84.433979 4.999254 " stroke="currentColor" stroke-width="10" stroke-opacity="1" stroke-miterlimit="4"/><g clip-path="url(#e5fe2e691a)"><path stroke-linecap="butt" transform="matrix(0, -1.10658, 1.10658, 0, 89.341604, 97.927223)" fill="none" stroke-linejoin="miter" d="M 0.00130328 5.000447 L 82.462557 5.000447 " stroke="currentColor" stroke-width="10" stroke-opacity="1" stroke-miterlimit="4"/></g></g></g></svg>