<svg xmlns="http://www.w3.org/2000/svg" xmlns:xlink="http://www.w3.org/1999/xlink" width="500" zoomAndPan="magnify" viewBox="0 0 375 374.999991" height="500" preserveAspectRatio="xMidYMid meet" version="1.0"><defs><g/><clipPath id="dfafd93eaa"><rect x="0" width="129" y="0" height="241"/></clipPath><clipPath id="9b5756ed73"><path d="M 0.839844 155 L 182 155 L 182 175 L 0.839844 175 Z M 0.839844 155 " clip-rule="nonzero"/></clipPath><clipPath id="0ccbf08594"><rect x="0" width="184" y="0" height="180"/></clipPath><clipPath id="4e267e9802"><path d="M 2 5 L 183.28125 5 L 183.28125 25 L 2 25 Z M 2 5 " clip-rule="nonzero"/></clipPath><clipPath id="d8acd6f1e7"><path d="M 154 1 L 174 1 L 174 178.960938 L 154 178.960938 Z M 154 1 " clip-rule="nonzero"/></clipPath><clipPath id="9af4fb3737"><rect x="0" width="184" y="0" height="179"/></clipPath></defs><rect x="-37.5" width="450" fill="#ffffff" y="-37.499999" height="449.999989" fill-opacity="1"/><rect x="-37.5" width="450" fill="#111827" y="-37.499999" height="449.999989" fill-opacity="1"/><g transform="matrix(1, 0, 0, 1, 121, 102)"><g clip-path="url(#dfafd93eaa)"><g fill="#ffffff" fill-opacity="1"><g transform="translate(2.318872, 172.94294)"><g><path d="M 11.5625 -158.9375 L 69.546875 -158.9375 C 85.734375 -158.9375 98.832031 -154.757812 108.84375 -146.40625 C 118.863281 -138.0625 123.875 -125.925781 123.875 -110 C 123.875 -94.082031 118.800781 -81.59375 108.65625 -72.53125 C 98.507812 -63.476562 85.472656 -58.953125 69.546875 -58.953125 L 47.78125 -58.953125 L 47.78125 0 L 11.5625 0 Z M 47.78125 -87.84375 L 57.984375 -87.84375 C 66.078125 -87.84375 72.722656 -89.476562 77.921875 -92.75 C 83.128906 -96.03125 85.734375 -101.394531 85.734375 -108.84375 C 85.734375 -116.425781 83.128906 -121.851562 77.921875 -125.125 C 72.722656 -128.40625 66.078125 -130.046875 57.984375 -130.046875 L 47.78125 -130.046875 Z M 47.78125 -87.84375 "/></g></g></g></g></g><g transform="matrix(1, 0, 0, 1, 27, 163)"><g clip-path="url(#0ccbf08594)"><g clip-path="url(#9b5756ed73)"><path stroke-linecap="butt" transform="matrix(1.916862, 0, 0, 1.916862, 10.500002, 155.331385)" fill="none" stroke-linejoin="miter" d="M -0.00000106294 4.999149 L 84.433659 4.999149 " stroke="#ffffff" stroke-width="10" stroke-opacity="1" stroke-miterlimit="4"/></g><path stroke-linecap="butt" transform="matrix(0, 1.916862, -1.916862, 0, 29.658795, 10.688328)" fill="none" stroke-linejoin="miter" d="M -0.000432183 5.00014 L 82.462645 5.00014 " stroke="#ffffff" stroke-width="10" stroke-opacity="1" stroke-miterlimit="4"/></g></g><g transform="matrix(1, 0, 0, 1, 164, 32)"><g clip-path="url(#9af4fb3737)"><g clip-path="url(#4e267e9802)"><path stroke-linecap="butt" transform="matrix(-1.916862, 0, 0, -1.916862, 173.489319, 24.663522)" fill="none" stroke-linejoin="miter" d="M 0.000541452 5.000567 L 84.432164 5.000567 " stroke="#ffffff" stroke-width="10" stroke-opacity="1" stroke-miterlimit="4"/></g><g clip-path="url(#d8acd6f1e7)"><path stroke-linecap="butt" transform="matrix(0, -1.916862, 1.916862, 0, 154.33054, 169.306563)" fill="none" stroke-linejoin="miter" d="M 0.000978308 4.99959 L 82.464055 4.99959 " stroke="#ffffff" stroke-width="10" stroke-opacity="1" stroke-miterlimit="4"/></g></g></g></svg>